# xmcd
#
# Track frame offsets: 
#        150
#        18319
#        38986
#        57904
#        77475
#        91859
#        112217
#        125498
#        146098
#        158666
#        182930
#        188567
#        209786
#        227069
#        251415
#
# Disc length: 3564 seconds
#
# Revision: 4
# Processed by: cddbd v1.5.2PL0 Copyright (c) Steve Scherf et al.
# Submitted via: ExactAudioCopy v1.0b3
#
DISCID=ce0dea0f
DTITLE=Morrison, Van - Perugia 2003.07.15 (2v2)
DYEAR=2003
DGENRE=R&B
TTITLE0=Real Real Gone
TTITLE1=Early In The Morning
TTITLE2=Talk is Cheap
TTITLE3=Don't Start Crying Now
TTITLE4=Time's Getting Tougher Than Tough
TTITLE5=I'm Your Hoochie Coochie Man
TTITLE6=Baby What You Want Me To Do
TTITLE7=Brown Eyed Girl
TTITLE8=When You're Smiling
TTITLE9=Gloria
TTITLE10=Introduction Song Writers Hall Of Fame
TTITLE11=Crazy Love (with Ray Charles)
TTITLE12=Steal My Heart Away (whith Ray Charles)
TTITLE13=It's All Over Now, Baby Blue (whith Bob Dylan)
TTITLE14=Tupelo Honey (with Bob Dylan)
EXTD=
EXTT0=
EXTT1=
EXTT2=
EXTT3=
EXTT4=
EXTT5=
EXTT6=
EXTT7=
EXTT8=
EXTT9=
EXTT10=
EXTT11=
EXTT12=
EXTT13=
EXTT14=
PLAYORDER=
